<svg width="136" height="75" viewBox="0 0 136 75" fill="none" xmlns="http://www.w3.org/2000/svg">
<path d="M86.5649 50.5558C83.9331 38.8516 81.328 27.2318 78.7229 15.6119C78.6471 15.6143 78.5713 15.6168 78.4954 15.6192C77.7009 18.6005 76.9536 21.5953 76.1027 24.5603C73.831 32.4759 71.5053 40.376 69.2238 48.2888C68.7417 49.9609 67.779 51.0896 66.0065 51.3045C64.1799 51.5259 62.9304 50.6478 62.1341 49.0414C60.9541 46.6608 59.7227 44.3043 58.6047 41.8951C58.1041 40.8162 57.3727 40.3588 56.2314 40.4051C53.2995 40.5241 50.3688 40.6794 47.4317 40.6232C46.6022 40.6074 45.8408 40.4211 45.1379 39.9966C44.1827 39.4197 43.7549 38.5905 43.8225 37.4514C43.8837 36.4194 44.5458 35.8992 45.3262 35.4716C46.4041 34.8808 47.6219 34.8415 48.7983 34.8261C51.2079 34.7946 53.6045 34.5094 56.0205 34.5658C57.4227 34.5985 58.8015 34.7963 60.192 34.8993C61.3593 34.9858 62.1839 35.6522 62.7324 36.688C63.4154 37.9778 64.1283 39.2518 64.979 40.8084C65.6235 38.5776 66.2017 36.6218 66.7535 34.6585C69.4061 25.22 72.0504 15.7791 74.7021 6.34026C74.9191 5.56757 75.1372 4.79255 75.4107 4.03887C76.0119 2.38193 77.0531 1.79754 79.247 1.82909C80.9233 1.8532 82.033 2.55723 82.4476 4.15667C83.1295 6.78708 83.6767 9.45263 84.2703 12.1057C85.7848 18.8748 87.2883 25.6463 88.8067 32.4146C89.836 37.0029 90.8825 41.5873 91.9246 46.1727C91.9449 46.2618 92.0055 46.3418 92.0581 46.4478C94.4064 37.9462 96.7421 29.4793 99.0885 21.0154C99.2835 20.312 99.4451 19.5824 99.8847 18.9763C101.259 17.0815 104.247 17.157 105.51 19.1715C106.831 21.279 107.715 23.6168 108.834 25.8323C110.095 28.3286 111.302 30.8524 112.506 33.377C112.857 34.1128 113.448 34.4015 114.187 34.4039C116.846 34.4127 119.505 34.3896 122.164 34.377C122.445 34.3757 122.759 34.3895 122.901 34.0903C123.078 33.7163 122.75 33.519 122.544 33.2986C121.644 32.3378 120.843 31.3292 120.918 29.9065C120.977 28.7987 121.369 27.848 122.384 27.2931C123.37 26.7541 124.326 27.0661 125.135 27.6684C127.63 29.5241 130.08 31.441 132.558 33.319C133.031 33.6768 133.544 33.9843 134.058 34.2824C136.568 35.7397 135.942 38.6531 134.332 39.8264C131.329 42.0131 128.569 44.4873 125.685 46.8129C124.49 47.7764 122.845 47.8853 121.89 47.1379C120.881 46.3467 120.711 45.0816 121.265 43.4973C121.621 42.4794 122.576 41.8621 122.938 40.7961C122.193 40.4354 121.405 40.5646 120.677 40.5623C117.915 40.5538 115.16 40.3474 112.395 40.3477C110.422 40.3479 108.701 39.6607 107.771 37.5608C106.499 34.6885 105.016 31.91 103.615 29.0761C103.217 29.2354 103.243 29.5851 103.164 29.868C100.725 38.6049 98.2912 47.343 95.8493 56.0791C95.6519 56.785 95.4259 57.4847 95.1759 58.1738C94.5618 59.866 93.2748 60.7538 91.5913 60.6772C89.9007 60.6003 88.6414 59.6288 88.2113 57.885C87.619 55.483 87.1268 53.0563 86.5649 50.5558Z" fill="#0A2342"/>
<path d="M38.2431 55.5272C29.3196 55.5292 20.5006 55.516 11.6817 55.5532C10.6871 55.5574 10.4454 55.2129 10.4475 54.2827C10.4723 42.9091 10.4744 31.5354 10.448 20.1618C10.4458 19.213 10.714 18.882 11.6905 18.8852C20.9293 18.9146 30.1683 18.9099 39.4072 18.8915C40.2611 18.8898 40.6801 19.0761 40.6447 20.0566C40.4883 24.3933 40.5289 28.7329 40.6408 33.0702C40.6653 34.0209 40.3841 34.348 39.4035 34.3317C36.1498 34.2777 32.8946 34.3067 29.64 34.3138C27.6693 34.3181 26.1126 35.7351 26.1546 37.4662C26.1966 39.1955 27.7817 40.6599 29.6746 40.6698C32.9291 40.6869 36.1841 40.7013 39.4382 40.6619C40.3151 40.6512 40.5893 40.9623 40.587 41.8146C40.5753 46.0486 40.5952 50.2828 40.6397 54.5166C40.6479 55.2952 40.3789 55.607 39.6068 55.5344C39.1906 55.4953 38.7676 55.5272 38.2431 55.5272Z" fill="#0A2342"/>
<path d="M4.13736 73.6501C0.851657 72.182 -0.280002 68.9479 0.0570019 66.2055C0.54436 62.2395 2.63943 60.0955 6.08386 59.5546C6.77745 59.4456 7.46647 59.3637 8.16907 59.3639C19.7871 59.3677 31.4051 59.3594 43.0231 59.374C45.2482 59.3768 47.3743 59.8358 48.9796 61.5077C51.0683 63.683 51.6368 66.2831 50.7196 69.1571C49.8243 71.9626 47.9226 73.6961 44.9991 74.2179C43.4502 74.4943 41.8834 74.6058 40.3053 74.604C30.0171 74.5925 19.7288 74.6062 9.44065 74.5855C7.65663 74.5819 5.88472 74.3852 4.13736 73.6501Z" fill="#0A2342"/>
<path d="M36.7769 15.1706C27.6821 15.1711 18.692 15.2071 9.70252 15.1472C7.41688 15.132 5.09462 15.0605 3.07923 13.6286C0.65366 11.9054 -0.174426 9.46992 0.0631792 6.68469C0.346094 3.36834 2.25255 1.26643 5.467 0.378106C6.55156 0.0783848 7.67167 0.0101836 8.78606 0.0089979C20.0496 -0.00297987 31.3132 -0.00180711 42.5767 0.00556284C44.2349 0.00665232 45.8551 0.267114 47.3359 1.0567C49.9639 2.45799 51.5586 5.59034 51.0804 8.33221C50.4741 11.8091 48.2032 14.2194 44.9245 14.772C42.2635 15.2205 39.5702 15.1834 36.7769 15.1706Z" fill="#0A2342"/>
</svg>
